<mxfile host="app.diagrams.net" modified="2023-07-24T13:32:00.691Z" agent="Mozilla/5.0 (Macintosh; Intel Mac OS X 10_15_7) AppleWebKit/605.1.15 (KHTML, like Gecko) Version/15.4 Safari/605.1.15" etag="6Bf-ZO_0AiDsl2QbFjuT" version="21.6.5" type="github">
  <diagram name="第 1 页" id="Bb3V6MCrzzGmh_X3BsHS">
    <mxGraphModel dx="127" dy="-522" grid="1" gridSize="10" guides="1" tooltips="1" connect="1" arrows="1" fold="1" page="1" pageScale="1" pageWidth="827" pageHeight="1169" math="0" shadow="0">
      <root>
        <mxCell id="0" />
        <mxCell id="1" parent="0" />
        <mxCell id="w9qBi3Nnz5N5SbemP6c5-1" style="edgeStyle=orthogonalEdgeStyle;rounded=0;orthogonalLoop=1;jettySize=auto;html=1;entryX=0.5;entryY=0;entryDx=0;entryDy=0;" edge="1" parent="1" source="w9qBi3Nnz5N5SbemP6c5-2" target="w9qBi3Nnz5N5SbemP6c5-4">
          <mxGeometry relative="1" as="geometry" />
        </mxCell>
        <mxCell id="w9qBi3Nnz5N5SbemP6c5-2" value="&lt;font style=&quot;font-size: 30px;&quot; face=&quot;Times New Roman&quot;&gt;Resize&lt;/font&gt;" style="rounded=0;whiteSpace=wrap;html=1;fillColor=#dae8fc;strokeColor=#6c8ebf;rotation=-90;" vertex="1" parent="1">
          <mxGeometry x="1645" y="2091.88" width="130" height="50" as="geometry" />
        </mxCell>
        <mxCell id="w9qBi3Nnz5N5SbemP6c5-3" style="edgeStyle=orthogonalEdgeStyle;rounded=0;orthogonalLoop=1;jettySize=auto;html=1;entryX=0.5;entryY=0;entryDx=0;entryDy=0;" edge="1" parent="1" source="w9qBi3Nnz5N5SbemP6c5-4" target="w9qBi3Nnz5N5SbemP6c5-16">
          <mxGeometry relative="1" as="geometry" />
        </mxCell>
        <mxCell id="w9qBi3Nnz5N5SbemP6c5-4" value="&lt;font style=&quot;font-size: 27px;&quot; face=&quot;Times New Roman&quot;&gt;C&lt;/font&gt;" style="ellipse;whiteSpace=wrap;html=1;aspect=fixed;" vertex="1" parent="1">
          <mxGeometry x="1815" y="2251.88" width="50" height="50" as="geometry" />
        </mxCell>
        <mxCell id="w9qBi3Nnz5N5SbemP6c5-5" style="edgeStyle=orthogonalEdgeStyle;rounded=0;orthogonalLoop=1;jettySize=auto;html=1;entryX=0.5;entryY=0;entryDx=0;entryDy=0;" edge="1" parent="1" source="w9qBi3Nnz5N5SbemP6c5-6" target="w9qBi3Nnz5N5SbemP6c5-2">
          <mxGeometry relative="1" as="geometry" />
        </mxCell>
        <mxCell id="w9qBi3Nnz5N5SbemP6c5-6" value="&lt;font face=&quot;Times New Roman&quot; style=&quot;font-size: 30px;&quot;&gt;Input1&lt;/font&gt;" style="text;html=1;strokeColor=none;fillColor=none;align=center;verticalAlign=middle;whiteSpace=wrap;rounded=0;" vertex="1" parent="1">
          <mxGeometry x="1530" y="2101.88" width="100" height="30" as="geometry" />
        </mxCell>
        <mxCell id="w9qBi3Nnz5N5SbemP6c5-7" style="edgeStyle=orthogonalEdgeStyle;rounded=0;orthogonalLoop=1;jettySize=auto;html=1;entryX=0.5;entryY=0;entryDx=0;entryDy=0;" edge="1" parent="1" source="w9qBi3Nnz5N5SbemP6c5-8" target="w9qBi3Nnz5N5SbemP6c5-10">
          <mxGeometry relative="1" as="geometry" />
        </mxCell>
        <mxCell id="w9qBi3Nnz5N5SbemP6c5-8" value="&lt;font face=&quot;Times New Roman&quot; style=&quot;font-size: 30px;&quot;&gt;Input2&lt;/font&gt;" style="text;html=1;strokeColor=none;fillColor=none;align=center;verticalAlign=middle;whiteSpace=wrap;rounded=0;" vertex="1" parent="1">
          <mxGeometry x="1530" y="2261.88" width="100" height="30" as="geometry" />
        </mxCell>
        <mxCell id="w9qBi3Nnz5N5SbemP6c5-9" style="edgeStyle=orthogonalEdgeStyle;rounded=0;orthogonalLoop=1;jettySize=auto;html=1;entryX=0;entryY=0.5;entryDx=0;entryDy=0;" edge="1" parent="1" source="w9qBi3Nnz5N5SbemP6c5-10" target="w9qBi3Nnz5N5SbemP6c5-4">
          <mxGeometry relative="1" as="geometry" />
        </mxCell>
        <mxCell id="w9qBi3Nnz5N5SbemP6c5-10" value="&lt;font style=&quot;font-size: 30px;&quot; face=&quot;Times New Roman&quot;&gt;Resize&lt;/font&gt;" style="rounded=0;whiteSpace=wrap;html=1;fillColor=#dae8fc;strokeColor=#6c8ebf;rotation=-90;" vertex="1" parent="1">
          <mxGeometry x="1645" y="2251.88" width="130" height="50" as="geometry" />
        </mxCell>
        <mxCell id="w9qBi3Nnz5N5SbemP6c5-11" style="edgeStyle=orthogonalEdgeStyle;rounded=0;orthogonalLoop=1;jettySize=auto;html=1;entryX=0.5;entryY=1;entryDx=0;entryDy=0;" edge="1" parent="1" source="w9qBi3Nnz5N5SbemP6c5-12" target="w9qBi3Nnz5N5SbemP6c5-4">
          <mxGeometry relative="1" as="geometry" />
        </mxCell>
        <mxCell id="w9qBi3Nnz5N5SbemP6c5-12" value="&lt;font style=&quot;font-size: 30px;&quot; face=&quot;Times New Roman&quot;&gt;Resize&lt;/font&gt;" style="rounded=0;whiteSpace=wrap;html=1;fillColor=#dae8fc;strokeColor=#6c8ebf;rotation=-90;" vertex="1" parent="1">
          <mxGeometry x="1645" y="2411.88" width="130" height="50" as="geometry" />
        </mxCell>
        <mxCell id="w9qBi3Nnz5N5SbemP6c5-13" style="edgeStyle=orthogonalEdgeStyle;rounded=0;orthogonalLoop=1;jettySize=auto;html=1;entryX=0.5;entryY=0;entryDx=0;entryDy=0;" edge="1" parent="1" source="w9qBi3Nnz5N5SbemP6c5-14" target="w9qBi3Nnz5N5SbemP6c5-12">
          <mxGeometry relative="1" as="geometry" />
        </mxCell>
        <mxCell id="w9qBi3Nnz5N5SbemP6c5-14" value="&lt;font face=&quot;Times New Roman&quot; style=&quot;font-size: 30px;&quot;&gt;Input3&lt;/font&gt;" style="text;html=1;strokeColor=none;fillColor=none;align=center;verticalAlign=middle;whiteSpace=wrap;rounded=0;" vertex="1" parent="1">
          <mxGeometry x="1530" y="2421.88" width="100" height="30" as="geometry" />
        </mxCell>
        <mxCell id="w9qBi3Nnz5N5SbemP6c5-15" style="edgeStyle=orthogonalEdgeStyle;rounded=0;orthogonalLoop=1;jettySize=auto;html=1;entryX=0.5;entryY=0;entryDx=0;entryDy=0;" edge="1" parent="1" source="w9qBi3Nnz5N5SbemP6c5-16" target="w9qBi3Nnz5N5SbemP6c5-18">
          <mxGeometry relative="1" as="geometry" />
        </mxCell>
        <mxCell id="w9qBi3Nnz5N5SbemP6c5-16" value="&lt;font face=&quot;Times New Roman&quot; style=&quot;font-size: 30px;&quot;&gt;Conv&lt;/font&gt;" style="rounded=0;whiteSpace=wrap;html=1;rotation=-90;fillColor=#fff2cc;strokeColor=#000000;gradientColor=#ffd966;strokeWidth=0.5;gradientDirection=south;opacity=80;" vertex="1" parent="1">
          <mxGeometry x="1913" y="2254.38" width="106" height="45" as="geometry" />
        </mxCell>
        <mxCell id="w9qBi3Nnz5N5SbemP6c5-17" style="edgeStyle=orthogonalEdgeStyle;rounded=0;orthogonalLoop=1;jettySize=auto;html=1;entryX=0;entryY=0.5;entryDx=0;entryDy=0;" edge="1" parent="1" source="w9qBi3Nnz5N5SbemP6c5-18" target="w9qBi3Nnz5N5SbemP6c5-19">
          <mxGeometry relative="1" as="geometry" />
        </mxCell>
        <mxCell id="w9qBi3Nnz5N5SbemP6c5-18" value="&lt;font face=&quot;Times New Roman&quot; style=&quot;font-size: 30px;&quot;&gt;Conv&lt;/font&gt;" style="rounded=0;whiteSpace=wrap;html=1;rotation=-90;fillColor=#fff2cc;strokeColor=#000000;gradientColor=#ffd966;strokeWidth=0.5;gradientDirection=south;opacity=80;" vertex="1" parent="1">
          <mxGeometry x="1991" y="2254.38" width="106" height="45" as="geometry" />
        </mxCell>
        <mxCell id="w9qBi3Nnz5N5SbemP6c5-19" value="&lt;font face=&quot;Times New Roman&quot; style=&quot;font-size: 30px;&quot;&gt;Output&lt;/font&gt;" style="text;html=1;strokeColor=none;fillColor=none;align=center;verticalAlign=middle;whiteSpace=wrap;rounded=0;" vertex="1" parent="1">
          <mxGeometry x="2121" y="2261.88" width="100" height="30" as="geometry" />
        </mxCell>
      </root>
    </mxGraphModel>
  </diagram>
</mxfile>
